<svg xmlns="http://www.w3.org/2000/svg" xmlns:xlink="http://www.w3.org/1999/xlink" version="1.1" x="0px" y="0px" viewBox="0 0 1000 1000" enable-background="new 0 0 1000 1000" xml:space="preserve">
<metadata> Svg Vector Icons : http://www.onlinewebfonts.com/icon </metadata>
<g><path d="M618.5,538.4c82.4-46.8,138.7-140.6,138.7-248.8c0-155-115.2-280.7-257.3-280.7S242.7,134.5,242.7,289.5c0,108.3,56.4,202.1,138.7,248.8C175,589.8,20.3,771.3,10,991.1h45.6h1.2h886.4h1.1H990C979.5,771.4,824.8,589.8,618.5,538.4z M289.4,285.3c0-126.9,94.3-229.7,210.5-229.7c116.2,0,210.5,102.8,210.5,229.7c0,126.8-94.3,229.6-210.5,229.6C383.7,514.9,289.4,412.1,289.4,285.3z M61.8,944.4c33.7-212,216.6-374.2,438.1-374.2c221.5,0,404.4,162.2,438.1,374.2H61.8z" style="fill: #d9d9d9;"/></g>
</svg>